<svg xmlns="http://www.w3.org/2000/svg" width="245.68" height="221.4" viewBox="0 0 245.68 221.4">
  <defs>
    <style>
      .a {
        fill: #c84d37;
      }
    </style>
  </defs>
  <title>アセット 3</title>
  <path class="a" d="M172.63,93.29l-21.54,6.59-1.66-82.4L171,10.9ZM57.86,68.76,57.2,35.91l-12-8.52L23.66,34h0L2.46,40.47,0,63.13l23.8-29ZM134.69,0,113.15,6.59l36.26,10.81Zm-97,157.53L53.65,86.24l14.53,17.18,26-8-.3-.07L114.8,89l-1.66-82.4L91.61,13.19l1.65,82.07L53.69,86.07l3.92-17.53L36.07,75.13h0l-21.2,6.49-2.46,22.67L36.07,75.44ZM71.08,19.47,30.37,10,45.09,27.42ZM245.3,156.08c-30.71,9.4-56.51,8.9-76.67-1.49C151,145.52,138,128.73,131,106l20-6.13L114.83,89.07l14.48,17.13L34.82,221.4l77-51.75,17.52-63.39.19.23.23-.07c7.1,23.06,20.32,40.12,38.24,49.35,20.48,10.55,46.61,11.08,77.66,1.58Z"/>
</svg>
