<svg xmlns="http://www.w3.org/2000/svg" width="165.07mm" height="48.9mm" viewBox="0 0 467.9 138.61">
  <defs>
    <style>
      .a {
        fill: #c94d37;
      }

      .b {
        fill: #bf4c36;
      }
    </style>
  </defs>
  <title>アセット 1</title>
  <g>
    <g>
      <g>
        <path class="a" d="M0,.63H10.34L26.6,45.91h.21V.63H37.58V75.78H27.44L11,30.61h-.21V75.78H0Z"/>
        <path class="a" d="M60.58,48.45,48,22.27h11.4l6.65,15.2,6.65-15.2h11.4L71.35,48.45,84.76,75.78H73.36L66.07,59.42,58.79,75.78H47.39Z"/>
        <path class="a" d="M95,.63h16.15A24,24,0,0,1,119,1.79a15,15,0,0,1,6.12,4.11,16.13,16.13,0,0,1,3.8,6.91,43.29,43.29,0,0,1,1.06,10.71,53.38,53.38,0,0,1-.58,8.5,17.91,17.91,0,0,1-2.48,6.6A15.7,15.7,0,0,1,121,44.38a19.86,19.86,0,0,1-9.71,2.06h-5.49V75.78H95Zm10.77,35.68h5.17a11,11,0,0,0,5.07-.95,6,6,0,0,0,2.64-2.59,10.07,10.07,0,0,0,1-4q.16-2.32.16-5.17,0-2.63-.16-5a11.79,11.79,0,0,0-1-4.11,6,6,0,0,0-2.48-2.74,9.61,9.61,0,0,0-4.85-1h-5.59Z"/>
        <path class="a" d="M178.48,59a17.14,17.14,0,0,1-1.32,6.65,17.46,17.46,0,0,1-3.64,5.54,18,18,0,0,1-5.44,3.8,15.93,15.93,0,0,1-6.7,1.42,24.07,24.07,0,0,1-6.23-.84,15.08,15.08,0,0,1-5.7-2.9,15.67,15.67,0,0,1-4.17-5.43,19.61,19.61,0,0,1-1.64-8.55V17.31a18.33,18.33,0,0,1,1.27-6.86A16.18,16.18,0,0,1,148.51,5,16.68,16.68,0,0,1,154,1.32,18.61,18.61,0,0,1,161.17,0,17.67,17.67,0,0,1,168,1.32,16.45,16.45,0,0,1,173.52,5a17.06,17.06,0,0,1,3.64,5.7,19.45,19.45,0,0,1,1.32,7.23v4.22H167.72V18.58a8.72,8.72,0,0,0-1.79-5.49,5.82,5.82,0,0,0-4.86-2.32q-4,0-5.33,2.48a13.3,13.3,0,0,0-1.32,6.28V57.94a10,10,0,0,0,1.43,5.49q1.42,2.21,5.12,2.22a7.81,7.81,0,0,0,2.27-.37,6.2,6.2,0,0,0,2.21-1.21,6.11,6.11,0,0,0,1.64-2.32,9.39,9.39,0,0,0,.63-3.69v-3.7h10.77Z"/>
        <path class="a" d="M199.4,65h10.77V75.78H199.4Z"/>
        <path class="a" d="M234.07.63h10.77V65h21.32V75.78H234.07Z"/>
        <path class="a" d="M276.3.63h10.77V11.4H276.3Zm0,21.64h10.77V75.78H276.3Z"/>
        <path class="a" d="M320.65,75.78h-9.5L297.21,22.27h11.4l7.18,34.2H316l7.18-34.2h11.4Z"/>
        <path class="a" d="M353.88,52.58v7.28a5.16,5.16,0,0,0,1.43,3.9,5.31,5.31,0,0,0,3.85,1.37q3.06,0,4.06-1.79a9.64,9.64,0,0,0,1.21-3.59H375.2a17.89,17.89,0,0,1-1.11,6.33,14,14,0,0,1-3.22,5.06,15.15,15.15,0,0,1-5.07,3.49,16.76,16.76,0,0,1-6.65,1.26,16.55,16.55,0,0,1-8.55-2.11,14.19,14.19,0,0,1-7.07-10.45,39.68,39.68,0,0,1-.42-6V39.71a39.72,39.72,0,0,1,.42-6,14.2,14.2,0,0,1,7.07-10.45,16.57,16.57,0,0,1,8.55-2.11,17.1,17.1,0,0,1,6.7,1.27,14.1,14.1,0,0,1,5.07,3.54,15.91,15.91,0,0,1,3.17,5.33,19.09,19.09,0,0,1,1.11,6.54V52.58Zm0-8.45h10.55V38A6.53,6.53,0,0,0,363,33.42a5.62,5.62,0,0,0-7.71,0A6.52,6.52,0,0,0,353.88,38Z"/>
      </g>
      <g>
        <path class="a" d="M406.47,75.78h-3.09L398.85,57h3.71l2.33,12H405l2.34-12H411Z"/>
        <path class="a" d="M413.48,63.27a15.07,15.07,0,0,1,.14-2.12,5.45,5.45,0,0,1,.52-1.71,4.92,4.92,0,0,1,1.79-2,5.58,5.58,0,0,1,5.56,0,4.9,4.9,0,0,1,1.78,2,5.43,5.43,0,0,1,.52,1.71,15.22,15.22,0,0,1,.14,2.12v6.2a15.19,15.19,0,0,1-.14,2.12,5.42,5.42,0,0,1-.52,1.71,4.91,4.91,0,0,1-1.78,2,5.58,5.58,0,0,1-5.56,0,4.92,4.92,0,0,1-1.79-2,5.44,5.44,0,0,1-.52-1.71,15,15,0,0,1-.14-2.12Zm3.5,6.8a2.42,2.42,0,0,0,.46,1.62,1.73,1.73,0,0,0,2.51,0,2.42,2.42,0,0,0,.46-1.62V62.67a2.41,2.41,0,0,0-.46-1.61,1.73,1.73,0,0,0-2.51,0,2.41,2.41,0,0,0-.46,1.61Z"/>
        <path class="a" d="M427.67,49.34h3.5V70.47a1.58,1.58,0,0,0,1.72,2V76a10.91,10.91,0,0,1-2.18-.2,3.38,3.38,0,0,1-2.68-2.4,8.22,8.22,0,0,1-.36-2.67Z"/>
        <path class="a" d="M435.64,72h3.5v3.79h-3.5Z"/>
        <path class="a" d="M443.12,72.22l6.32-12.89a5,5,0,0,0,.55-1.69c0-.48.07-1.08.07-1.8,0-.32,0-.66,0-1a3.23,3.23,0,0,0-.19-.95,1.6,1.6,0,0,0-.5-.69,1.57,1.57,0,0,0-1-.28,1.65,1.65,0,0,0-1.25.48,2,2,0,0,0-.46,1.41V57h-3.5V54.88a6,6,0,0,1,1.53-4,5.37,5.37,0,0,1,1.67-1.24,4.68,4.68,0,0,1,2.06-.46,4.8,4.8,0,0,1,2.35.54,4.62,4.62,0,0,1,1.61,1.47,6.44,6.44,0,0,1,.93,2.11,10.56,10.56,0,0,1,.29,2.53q0,1,0,1.62a10.49,10.49,0,0,1-.14,1.24,5.69,5.69,0,0,1-.35,1.19q-.24.59-.65,1.45L447.24,72h6.32v3.79H443.12Z"/>
        <path class="a" d="M464.21,52.91h-3.85v3h-3.09V49.34h10.44v3.79l-5.94,22.65h-3.71Z"/>
      </g>
    </g>
    <g>
      <g>
        <path class="b" d="M220,138.61h-2.77l13.08-33.8h2.85Z"/>
        <path class="b" d="M264.65,129.21a6.67,6.67,0,0,1-.51,2.6,6.82,6.82,0,0,1-1.42,2.17,7.06,7.06,0,0,1-2.12,1.49A6.2,6.2,0,0,1,258,136a9.39,9.39,0,0,1-2.43-.33,5.88,5.88,0,0,1-2.23-1.14,6.15,6.15,0,0,1-1.63-2.12,7.64,7.64,0,0,1-.64-3.34V112.91a7.17,7.17,0,0,1,.5-2.68,6.31,6.31,0,0,1,1.4-2.14,6.57,6.57,0,0,1,2.17-1.42,7.24,7.24,0,0,1,2.79-.52,6.87,6.87,0,0,1,2.68.52,6.48,6.48,0,0,1,2.15,1.45,6.69,6.69,0,0,1,1.42,2.22,7.63,7.63,0,0,1,.51,2.83v1.65h-4.21v-1.4a3.4,3.4,0,0,0-.7-2.14,2.28,2.28,0,0,0-1.9-.91,2.13,2.13,0,0,0-2.08,1,5.2,5.2,0,0,0-.52,2.45v15a3.88,3.88,0,0,0,.56,2.15,2.19,2.19,0,0,0,2,.86,3,3,0,0,0,.89-.15,2.31,2.31,0,0,0,1.5-1.38,3.66,3.66,0,0,0,.25-1.44v-1.44h4.21Z"/>
        <path class="b" d="M271.5,106.39h4.21v29.38H271.5Z"/>
        <path class="b" d="M283.09,106.39h6.77q7.43,0,7.43,8.62a10.88,10.88,0,0,1-.8,4.39,6.24,6.24,0,0,1-2.83,3l4.54,13.41h-4.46l-3.92-12.54H287.3v12.54h-4.21Zm4.21,13.12h2.39a4.24,4.24,0,0,0,1.78-.31,2.25,2.25,0,0,0,1-.89,3.74,3.74,0,0,0,.47-1.42,15.45,15.45,0,0,0,0-3.92,3.51,3.51,0,0,0-.52-1.44,2.34,2.34,0,0,0-1.09-.89,5,5,0,0,0-1.86-.29H287.3Z"/>
        <path class="b" d="M317.34,129.21a6.69,6.69,0,0,1-.51,2.6A6.82,6.82,0,0,1,315.4,134a7.06,7.06,0,0,1-2.13,1.49,6.19,6.19,0,0,1-2.62.55,9.39,9.39,0,0,1-2.43-.33,5.89,5.89,0,0,1-2.23-1.14,6.15,6.15,0,0,1-1.63-2.12,7.66,7.66,0,0,1-.64-3.34V112.91a7.17,7.17,0,0,1,.5-2.68,6.31,6.31,0,0,1,1.4-2.14,6.55,6.55,0,0,1,2.16-1.42,7.25,7.25,0,0,1,2.79-.52,6.86,6.86,0,0,1,2.68.52,6.47,6.47,0,0,1,2.15,1.45,6.68,6.68,0,0,1,1.42,2.22,7.65,7.65,0,0,1,.51,2.83v1.65h-4.21v-1.4a3.41,3.41,0,0,0-.7-2.14,2.28,2.28,0,0,0-1.9-.91,2.13,2.13,0,0,0-2.08,1,5.2,5.2,0,0,0-.52,2.45v15a3.9,3.9,0,0,0,.56,2.15,2.19,2.19,0,0,0,2,.86,3,3,0,0,0,.89-.15,2.31,2.31,0,0,0,1.51-1.38,3.68,3.68,0,0,0,.25-1.44v-1.44h4.21Z"/>
        <path class="b" d="M337.68,129.17a6.71,6.71,0,0,1-.54,2.68,6.93,6.93,0,0,1-3.63,3.63,6.81,6.81,0,0,1-5.28,0,6.85,6.85,0,0,1-2.17-1.47,6.93,6.93,0,0,1-1.46-2.16,6.66,6.66,0,0,1-.54-2.68V106.39h4.21v22.36a3.17,3.17,0,0,0,.74,2.32,2.7,2.7,0,0,0,3.71,0,3.16,3.16,0,0,0,.74-2.32V106.39h4.21Z"/>
        <path class="b" d="M358.56,114.85h-4.21v-.95a4.52,4.52,0,0,0-.68-2.5,2.52,2.52,0,0,0-2.29-1.05,2.75,2.75,0,0,0-1.42.33,2.41,2.41,0,0,0-.86.85,3.59,3.59,0,0,0-.44,1.19,8.17,8.17,0,0,0-.12,1.42,14.07,14.07,0,0,0,.06,1.47,2.63,2.63,0,0,0,.31,1,2.37,2.37,0,0,0,.72.76,6.47,6.47,0,0,0,1.3.66l3.22,1.28a8.12,8.12,0,0,1,2.27,1.26,5.18,5.18,0,0,1,1.34,1.69,7.16,7.16,0,0,1,.64,2.23,22.37,22.37,0,0,1,.17,2.87,15.22,15.22,0,0,1-.37,3.45,7.25,7.25,0,0,1-1.22,2.72,5.82,5.82,0,0,1-2.25,1.8,8,8,0,0,1-3.43.66,7.54,7.54,0,0,1-2.85-.53,6.89,6.89,0,0,1-4.33-6.44v-1.57h4.21v1.32a3.42,3.42,0,0,0,.68,2.08,2.65,2.65,0,0,0,2.29.93,3.7,3.7,0,0,0,1.67-.31,2.13,2.13,0,0,0,.91-.86,3.61,3.61,0,0,0,.39-1.38,18.12,18.12,0,0,0,.08-1.82,17.55,17.55,0,0,0-.08-1.89,3,3,0,0,0-.35-1.2,2.14,2.14,0,0,0-.74-.74,9.26,9.26,0,0,0-1.26-.62l-3-1.23a6.68,6.68,0,0,1-3.65-3,10.13,10.13,0,0,1-.93-4.6,10.55,10.55,0,0,1,.46-3.13,7.27,7.27,0,0,1,1.34-2.56,6.45,6.45,0,0,1,2.25-1.71,7.42,7.42,0,0,1,3.18-.64,7,7,0,0,1,2.87.58,7.15,7.15,0,0,1,2.23,1.53,6.77,6.77,0,0,1,1.42,2.13,6.11,6.11,0,0,1,.5,2.41Z"/>
        <path class="b" d="M378.74,110.35h-4.87v-4h13.95v4h-4.87v25.42h-4.21Z"/>
        <path class="b" d="M392.72,113.32a7.56,7.56,0,0,1,.62-3.14,6.55,6.55,0,0,1,1.63-2.25,7.06,7.06,0,0,1,2.27-1.34,7.33,7.33,0,0,1,5.07,0,7.08,7.08,0,0,1,2.27,1.34,6.59,6.59,0,0,1,1.63,2.25,7.56,7.56,0,0,1,.62,3.14v15.51a7.5,7.5,0,0,1-.62,3.16,6.67,6.67,0,0,1-1.63,2.23,7,7,0,0,1-2.27,1.34,7.34,7.34,0,0,1-5.07,0,7,7,0,0,1-2.27-1.34,6.63,6.63,0,0,1-1.63-2.23,7.5,7.5,0,0,1-.62-3.16Zm4.21,15.51a2.8,2.8,0,0,0,.85,2.25,3.14,3.14,0,0,0,4,0,2.79,2.79,0,0,0,.85-2.25V113.32a2.8,2.8,0,0,0-.85-2.25,3.13,3.13,0,0,0-4,0,2.8,2.8,0,0,0-.85,2.25Z"/>
        <path class="b" d="M413.85,106.39h4.21V119.8h.08l6.15-13.41h4.21l-5.74,11.76,6.81,17.62h-4.46l-4.79-13L418.06,127v8.79h-4.21Z"/>
        <path class="b" d="M438.65,123.35l-5.77-17h4.45l3.39,11.67h.08l3.38-11.67h4.46l-5.78,17v12.42h-4.21Z"/>
        <path class="b" d="M453.79,113.32a7.53,7.53,0,0,1,.62-3.14,6.52,6.52,0,0,1,1.63-2.25,7.07,7.07,0,0,1,2.27-1.34,7.33,7.33,0,0,1,5.08,0,7.09,7.09,0,0,1,2.27,1.34,6.55,6.55,0,0,1,1.63,2.25,7.54,7.54,0,0,1,.62,3.14v15.51a7.48,7.48,0,0,1-.62,3.16,6.62,6.62,0,0,1-1.63,2.23,7,7,0,0,1-2.27,1.34,7.35,7.35,0,0,1-5.08,0,7,7,0,0,1-2.27-1.34,6.6,6.6,0,0,1-1.63-2.23,7.47,7.47,0,0,1-.62-3.16ZM458,128.83a2.79,2.79,0,0,0,.85,2.25,3.14,3.14,0,0,0,4,0,2.8,2.8,0,0,0,.85-2.25V113.32a2.8,2.8,0,0,0-.85-2.25,3.14,3.14,0,0,0-4,0,2.8,2.8,0,0,0-.85,2.25Z"/>
      </g>
      <g>
        <path class="b" d="M0,132l7.28-13.73a5,5,0,0,0,.63-1.8q.08-.77.08-1.92c0-.35,0-.71,0-1.09a3.23,3.23,0,0,0-.22-1,1.73,1.73,0,0,0-.57-.73,1.9,1.9,0,0,0-1.15-.3,2,2,0,0,0-1.45.52,2,2,0,0,0-.53,1.5v2.29H0v-2.21a6,6,0,0,1,.47-2.37,6.28,6.28,0,0,1,1.29-1.94,6.08,6.08,0,0,1,1.92-1.33,5.7,5.7,0,0,1,2.37-.5,6,6,0,0,1,2.71.57,5.24,5.24,0,0,1,1.86,1.57,6.6,6.6,0,0,1,1.07,2.25,10.49,10.49,0,0,1,.34,2.69c0,.69,0,1.26,0,1.72a10.11,10.11,0,0,1-.16,1.32,5.77,5.77,0,0,1-.39,1.27c-.18.42-.44.94-.75,1.54L4.75,131.76H12v4H0Z"/>
        <path class="b" d="M17.88,113.44a6.15,6.15,0,0,1,.5-2.53A6,6,0,0,1,19.7,109a5.69,5.69,0,0,1,1.92-1.21,6.43,6.43,0,0,1,4.55,0A5.72,5.72,0,0,1,28.1,109a6,6,0,0,1,1.32,1.9,6.14,6.14,0,0,1,.49,2.53V130a6.16,6.16,0,0,1-.49,2.54,6,6,0,0,1-1.32,1.9,5.71,5.71,0,0,1-1.92,1.21,6.44,6.44,0,0,1-4.55,0,5.69,5.69,0,0,1-1.92-1.21,5.94,5.94,0,0,1-1.33-1.9,6.17,6.17,0,0,1-.5-2.54Zm4,16.54a2,2,0,0,0,.55,1.45,2.06,2.06,0,0,0,2.85,0,2,2,0,0,0,.55-1.45V113.44a2,2,0,0,0-.55-1.45,2.06,2.06,0,0,0-2.85,0,2,2,0,0,0-.55,1.45Z"/>
        <path class="b" d="M40.56,111.9l-4,3v-4.28l4-3h4V135.8h-4Z"/>
        <path class="b" d="M61.65,111.42H57.22v3.25H53.66v-7h12v4L58.84,135.8H54.57Z"/>
        <path class="b" d="M71.86,131.76h4v4h-4Z"/>
        <path class="b" d="M86.85,119.49a5.16,5.16,0,0,0,2.51-.43c.46-.29.69-1,.69-2V113.4a2,2,0,0,0-.53-1.42,1.9,1.9,0,0,0-1.44-.56,1.7,1.7,0,0,0-1.52.67,2.34,2.34,0,0,0-.46,1.31v2.29h-4v-2.33a5.87,5.87,0,0,1,.47-2.34,5.74,5.74,0,0,1,1.31-1.9,6.48,6.48,0,0,1,1.94-1.27,6,6,0,0,1,2.38-.47,5.28,5.28,0,0,1,2.75.65,6.37,6.37,0,0,1,1.64,1.32,7.78,7.78,0,0,1,.69,1,4.51,4.51,0,0,1,.48,1.14,10.42,10.42,0,0,1,.28,1.59,22.41,22.41,0,0,1,.1,2.27c0,1,0,1.77-.06,2.37a4.74,4.74,0,0,1-.32,1.52,2.83,2.83,0,0,1-.75,1.05,9.63,9.63,0,0,1-1.37,1,7.69,7.69,0,0,1,1.44,1.1,3.27,3.27,0,0,1,.73,1.21,5.86,5.86,0,0,1,.28,1.66q0,1,0,2.47c0,.93,0,1.69-.06,2.3a12.17,12.17,0,0,1-.18,1.52,4.6,4.6,0,0,1-.32,1,6.51,6.51,0,0,1-.51.91,6.3,6.3,0,0,1-1.94,1.84,5.72,5.72,0,0,1-3,.73,6.9,6.9,0,0,1-2-.32,5.43,5.43,0,0,1-1.94-1,5.56,5.56,0,0,1-1.44-1.86,6.21,6.21,0,0,1-.57-2.81v-2.3h4v2.1a2.3,2.3,0,0,0,.53,1.56,2,2,0,0,0,2.89,0,2.42,2.42,0,0,0,.53-1.64v-4a5.37,5.37,0,0,0-.14-1.34,1.52,1.52,0,0,0-.5-.81,2,2,0,0,0-1-.4,10.77,10.77,0,0,0-1.6-.1Z"/>
        <path class="b" d="M100.27,131.76h4v4h-4Z"/>
        <path class="b" d="M115.27,111.9l-4,3v-4.28l4-3h4V135.8h-4Z"/>
        <path class="b" d="M133.15,111.9l-4,3v-4.28l4-3h4V135.8h-4Z"/>
        <path class="b" d="M164.41,121.35a2,2,0,0,0-.65-1.54,2.13,2.13,0,0,0-1.4-.51,1.8,1.8,0,0,0-1.46.61,2.12,2.12,0,0,0-.51,1.4,2.34,2.34,0,0,0,.28,1.09,2.57,2.57,0,0,0,1.42,1l2.37.95a5.77,5.77,0,0,1,3.11,2.37,6.57,6.57,0,0,1,.85,3.29,6,6,0,0,1-.46,2.36,6.22,6.22,0,0,1-1.25,1.92,5.69,5.69,0,0,1-1.9,1.31,6,6,0,0,1-2.41.47,6.4,6.4,0,0,1-2.26-.39,5.61,5.61,0,0,1-1.88-1.15,5.74,5.74,0,0,1-1.33-1.88,6.72,6.72,0,0,1-.55-2.63h3.8a3.86,3.86,0,0,0,.57,1.55,1.76,1.76,0,0,0,1.6.71,2.38,2.38,0,0,0,1.56-.57,2,2,0,0,0,.69-1.6,2.36,2.36,0,0,0-.43-1.43,3.46,3.46,0,0,0-1.58-1l-1.94-.71a6.66,6.66,0,0,1-3-2.12,5.43,5.43,0,0,1-1.09-3.43A5.86,5.86,0,0,1,157,119a5.68,5.68,0,0,1,1.29-1.86,6,6,0,0,1,1.88-1.21,6.09,6.09,0,0,1,2.29-.43,5.67,5.67,0,0,1,4.08,1.68,5.61,5.61,0,0,1,1.19,1.86,6.19,6.19,0,0,1,.43,2.31Z"/>
        <path class="b" d="M181.82,133.74h-.08a7.54,7.54,0,0,1-1.6,1.7,3.79,3.79,0,0,1-2.27.59,5.2,5.2,0,0,1-1.47-.21A3.7,3.7,0,0,1,175,135a4.13,4.13,0,0,1-1.07-1.62,7.48,7.48,0,0,1-.42-2.71,14.3,14.3,0,0,1,.28-3,4.74,4.74,0,0,1,1-2.14,4.34,4.34,0,0,1,2-1.26,9.89,9.89,0,0,1,3.13-.42q.43,0,.87,0l1.07.08v-2.1a3.08,3.08,0,0,0-.44-1.7,1.75,1.75,0,0,0-1.58-.67,2.26,2.26,0,0,0-1.44.52,2.42,2.42,0,0,0-.85,1.5h-3.92a6.59,6.59,0,0,1,1.82-4.35,5.72,5.72,0,0,1,1.9-1.24,6.51,6.51,0,0,1,2.49-.46,7.13,7.13,0,0,1,2.37.39,5.26,5.26,0,0,1,1.92,1.19,5.64,5.64,0,0,1,1.29,2,7.4,7.4,0,0,1,.47,2.77v14h-4Zm0-6.57a6.8,6.8,0,0,0-1.11-.12,4,4,0,0,0-2.24.61,2.48,2.48,0,0,0-.93,2.24,3,3,0,0,0,.55,1.86,1.84,1.84,0,0,0,1.54.71,2,2,0,0,0,1.6-.68,2.83,2.83,0,0,0,.57-1.9Z"/>
        <path class="b" d="M192,109.64h4v6.09h2.49v3.17H196V130a3.45,3.45,0,0,0,.14,1.11,1.15,1.15,0,0,0,.43.6,1.68,1.68,0,0,0,.77.24c.32,0,.7,0,1.15,0v3.8h-1.66a5.44,5.44,0,0,1-2.31-.43,4.13,4.13,0,0,1-1.48-1.11,4.31,4.31,0,0,1-.81-1.52,5.62,5.62,0,0,1-.26-1.64V118.9h-2v-3.17h2Z"/>
      </g>
    </g>
  </g>
</svg>
